<svg x="0px" y="0px" viewBox="0 0 1000 1000" enable-background="new 0 0 1000 1000" xml:space="preserve">
<g><g><g><path d="M10,742.7c0,44.5,36.2,80.7,80.7,80.7h818.7c44.5,0,80.7-36.2,80.7-80.7V466.2c0-44.5-36.2-80.7-80.7-80.7H882v-209h-53.8l0,0v209H171.8v-209l0,0H118v209H90.7c-44.5,0-80.7,36.2-80.7,80.7V742.7z M63.8,466.2c0-14.8,12.1-26.9,26.9-26.9H118h763.9h27.4c14.8,0,26.9,12.1,26.9,26.9v276.5c0,14.8-12.1,26.9-26.9,26.9H90.7c-14.8,0-26.9-12.1-26.9-26.9L63.8,466.2L63.8,466.2z"/><path d="M98.7,655.1H109c4.4,0,8.1-3.6,8.1-8.1v-43l26.2,45.7c1.8,3.1,5.7,5.4,9.3,5.4h11.5c4.4,0,8.1-3.6,8.1-8.1v-82.2c0-4.4-3.6-8.1-8.1-8.1h-10.2c-4.4,0-8.1,3.6-8.1,8.1v41.8l-25.3-44.5c-1.8-3.1-5.6-5.4-9.3-5.4H98.7c-4.4,0-8.1,3.6-8.1,8.1V647C90.7,651.4,94.3,655.1,98.7,655.1z"/><path d="M224.7,657.6c14,0,24.9-4,32.4-11.7c9.9-9.3,14.9-22.9,14.9-40.1c0-17.6-5-31.1-14.8-40c-7.6-7.8-18.5-11.8-32.5-11.8c-14,0-24.9,4-32.3,11.6c-10,9.1-15.1,22.6-15.1,40.2c0,17.3,5.1,30.8,14.9,40C199.8,653.6,210.7,657.6,224.7,657.6z M204.9,605.7c0-9,1.9-15.8,5.6-20.5c3.5-4.4,8.2-6.5,14.2-6.5c6,0,10.6,2.1,14.1,6.5c3.7,4.6,5.6,11.5,5.6,20.5c0,9-1.9,15.9-5.5,20.5c-3.5,4.4-8.1,6.5-14.1,6.5c-5,0-9-1.4-12.2-4.4c-1.1-1-2.8-3.1-3.6-4.5C206.2,619.4,204.9,613.3,204.9,605.7z"/><path d="M334.5,648.6c1.3,3.7,5.1,6.4,9,6.4H354c3.9,0,7.7-2.8,9-6.4l28.2-82.6c0.8-2.3,0.5-4.7-0.8-6.4c-1.3-1.8-3.4-2.9-5.8-2.9h-12.2c-4,0-7.8,2.9-8.9,6.7l-14.3,49.4l-14.1-49.4c-1.1-3.8-4.9-6.7-8.9-6.7h-12.8c-2.4,0-4.5,1.1-5.8,2.9c-1.3,1.8-1.6,4.2-0.8,6.5L334.5,648.6z"/><path d="M381.4,652.2c1.3,1.8,3.4,2.9,5.8,2.9h12.4c3.9,0,7.7-2.8,9-6.5l4.3-11.9L439,637l3.7,11.6c1.2,3.7,5,6.5,9,6.5h13.1c2.4,0,4.6-1.1,5.9-2.9c1.3-1.9,1.6-4.2,0.8-6.5l-29.2-82.7c-1.3-3.7-5.1-6.4-9-6.4h-14c-3.8,0-7.7,2.7-9,6.4l-29.5,82.7C379.8,648,380.1,650.4,381.4,652.2z M420.6,612.3l5.3-16.2l5.2,16.2H420.6z"/><path d="M516.8,657.6c11.4,0,20.9-3.5,28.4-10.3c6.4-6,10.7-13.5,12.9-22.5c0.5-2.2,0.1-4.5-1.3-6.2c-1.4-1.8-3.6-2.8-5.9-2.8h-11.4c-3.9,0-7.6,2.7-8.9,6.4c-0.9,2.5-1.8,4.3-2.9,5.6c-2.5,3.2-6.1,4.7-11.1,4.7c-4.9,0-8.8-1.9-12-5.8c-3.4-4.2-5.1-10.8-5.1-19.8c0-9.1,1.7-16,4.9-20.7c3-4.3,6.8-6.3,12.1-6.3c5.2,0,8.9,1.4,11.4,4.2c1,1.2,1.9,2.8,2.7,5c1.4,3.6,5.1,6.3,8.9,6.3H551c2.3,0,4.5-1,6-2.8c1.4-1.7,2-3.9,1.5-6.1c-0.9-5-3-10-6.4-14.9c-7.7-11.1-19.9-16.7-36.3-16.7c-12.3,0-22.6,4.2-30.7,12.4c-9.1,9.3-13.7,22.5-13.7,39.2c0,15.5,4.1,28,12.1,37C491.5,652.9,502.8,657.6,516.8,657.6z"/><path d="M566.7,655.1h12.4c3.9,0,7.7-2.8,9-6.5l4.3-11.9l26.2,0.3l3.7,11.6c1.2,3.7,5,6.5,9,6.5h13.1c2.4,0,4.5-1.1,5.8-2.9c1.3-1.8,1.6-4.2,0.8-6.5l-29.2-82.7c-1.3-3.6-5.1-6.4-9-6.4h-14c-3.8,0-7.7,2.7-9,6.4l-29.5,82.6c-0.8,2.3-0.6,4.7,0.7,6.5C562.2,654.1,564.3,655.1,566.7,655.1z M600,612.3l5.3-16.2l5.2,16.2H600z"/><path d="M662.5,655.1h10.2c4.4,0,8.1-3.6,8.1-8.1v-43l26.2,45.8c1.8,3.1,5.7,5.3,9.3,5.3h11.5c4.4,0,8.1-3.6,8.1-8.1v-82.2c0-4.4-3.6-8.1-8.1-8.1h-10.2c-4.4,0-8.1,3.6-8.1,8.1v41.8l-25.4-44.5c-1.8-3.1-5.7-5.4-9.3-5.4h-12.4c-4.4,0-8.1,3.6-8.1,8.1V647C654.4,651.4,658,655.1,662.5,655.1z"/><path d="M786,657.6c11.4,0,20.9-3.5,28.3-10.3c6.4-6,10.8-13.5,12.9-22.5c0.5-2.2,0-4.5-1.3-6.2c-1.4-1.8-3.6-2.8-5.9-2.8h-11.4c-3.8,0-7.6,2.7-8.9,6.4c-0.9,2.5-1.8,4.3-2.9,5.6c-2.5,3.2-6.1,4.7-11.1,4.7c-4.9,0-8.8-1.9-12-5.8c-3.4-4.2-5.1-10.8-5.1-19.8c0-9.1,1.7-16,4.9-20.7c3-4.3,6.9-6.3,12.1-6.3c5.2,0,8.9,1.4,11.4,4.2c1,1.2,1.9,2.8,2.7,4.9c1.4,3.7,5.1,6.4,8.9,6.4h11.5c2.3,0,4.5-1,6-2.8c1.4-1.7,2-3.9,1.6-6.1c-0.9-5-3.1-10-6.4-14.9c-7.7-11.1-19.9-16.7-36.3-16.7c-12.3,0-22.6,4.2-30.7,12.4c-9.1,9.3-13.7,22.5-13.7,39.2c0,15.5,4,28,12,37C760.7,652.9,771.9,657.6,786,657.6z"/><path d="M856.6,616.1c0.6,1.1,1.2,3.3,1.2,4.6V647c0,4.4,3.6,8.1,8.1,8.1h11.5c4.4,0,8.1-3.6,8.1-8.1v-26.4c0-1.2,0.6-3.5,1.2-4.6l26.5-49.6c1.2-2.3,1.2-4.7,0-6.7c-1.2-1.9-3.3-3.1-5.9-3.1h-14c-3.8,0-7.6,2.5-9.2,5.9l-12.3,26.9l-12.9-27c-1.6-3.3-5.5-5.8-9.2-5.8h-14.8c-2.6,0-4.7,1.1-5.9,3.1c-1.2,2-1.1,4.4,0.1,6.7L856.6,616.1z"/></g></g><g></g><g></g><g></g><g></g><g></g><g></g><g></g><g></g><g></g><g></g><g></g><g></g><g></g><g></g><g></g></g>
</svg>